<svg xmlns="http://www.w3.org/2000/svg" viewBox="0 0 100 100" fill="none">
  <defs>
    <linearGradient id="bgGrad" x1="0" y1="0" x2="100" y2="100">
      <stop offset="0%" stop-color="#1a0533"/>
      <stop offset="100%" stop-color="#0a0a1a"/>
    </linearGradient>
    <linearGradient id="strokeGrad" x1="0" y1="0" x2="100" y2="100">
      <stop offset="0%" stop-color="#FFD700"/>
      <stop offset="50%" stop-color="#FF69B4"/>
      <stop offset="100%" stop-color="#00FFFF"/>
    </linearGradient>
    <linearGradient id="cameraGrad" x1="0" y1="0" x2="56" y2="52">
      <stop offset="0%" stop-color="#FFD700"/>
      <stop offset="100%" stop-color="#FF6B6B"/>
    </linearGradient>
    <linearGradient id="lensGrad" x1="16" y1="18" x2="44" y2="46">
      <stop offset="0%" stop-color="#00FFFF"/>
      <stop offset="100%" stop-color="#8B5CF6"/>
    </linearGradient>
    <linearGradient id="starGrad" x1="0" y1="0" x2="24" y2="24">
      <stop offset="0%" stop-color="#FFD700"/>
      <stop offset="100%" stop-color="#FF69B4"/>
    </linearGradient>
  </defs>
  <circle cx="50" cy="50" r="48" fill="url(#bgGrad)" stroke="url(#strokeGrad)" stroke-width="2"/>
  <g transform="translate(20, 30)">
    <rect x="2" y="12" width="56" height="40" rx="8" fill="url(#cameraGrad)"/>
    <rect x="20" y="6" width="20" height="8" rx="3" fill="url(#cameraGrad)"/>
    <circle cx="30" cy="32" r="14" fill="url(#lensGrad)"/>
    <circle cx="30" cy="32" r="8" fill="#0A0A1A"/>
    <ellipse cx="27" cy="29" rx="3" ry="2" fill="rgba(255,255,255,0.3)" transform="rotate(-30 27 29)"/>
  </g>
  <g transform="translate(65, 22)">
    <path d="M12 0L15.5 8.5L24 12L15.5 15.5L12 24L8.5 15.5L0 12L8.5 8.5Z" fill="url(#starGrad)" transform="scale(0.8)"/>
    <circle cx="-6" cy="-4" r="1.5" fill="#FFD700" opacity="0.8"/>
    <circle cx="18" cy="-2" r="1" fill="#FF69B4" opacity="0.7"/>
    <circle cx="20" cy="18" r="1.2" fill="#00FFFF" opacity="0.6"/>
  </g>
</svg>
